# xmcd CD database file
#
# Track frame offsets:
#	150
#	33075
#	51900
#	72150
#	94725
#	119850
#	137250
#	168975
#	178462
#	200375
#
# Disc length: 2932 seconds
#
# Revision: 0
# Processed by: cddbd v1.5.1PL0 Copyright (c) Steve Scherf et al.
# Submitted via: CDex 1.51
#
DISCID=8d0b720a
DTITLE=Vinz Vonlanten - Telegram From Mars
DYEAR=1998
DGENRE=Jazz
TTITLE0=Urban Jungle
TTITLE1=Cauchemar De Sysiphe
TTITLE2=Boires Et Deboires
TTITLE3=Enigmatic Bells
TTITLE4=Vietato Sporgersi
TTITLE5=Telegram From Mars
TTITLE6=Leichtigkeit Der Eins
TTITLE7=Halali
TTITLE8=Don't Trust The Guitar Player
TTITLE9=Rheinfall
EXTD=YEAR: 1998
EXTT0=
EXTT1=
EXTT2=
EXTT3=
EXTT4=
EXTT5=
EXTT6=
EXTT7=
EXTT8=
EXTT9=
PLAYORDER=
